<svg width="32" height="32" viewBox="0 0 32 32" fill="none" xmlns="http://www.w3.org/2000/svg">
<path d="M10.0455 13.6364L10.0848 13.7045H10.0061L10.0455 13.6364Z" fill="#D9D9D9"/>
<circle cx="16" cy="16" r="16" fill="#342C46"/>
<path d="M16.0714 5.59245L25.0823 10.8491L25.0353 21.2811L15.9774 26.4564L6.96657 21.1997L7.01356 10.7677L16.0714 5.59245Z" fill="#A7A3BF"/>
<path d="M15.9298 7.94887L22.867 12.0177L22.8306 20.0926L15.8571 24.0988L8.91997 20.03L8.95634 11.955L15.9298 7.94887Z" fill="#342C46"/>
<path d="M15.9204 10.044L21.0479 13.0352L21.0212 18.9714L15.8669 21.9164L10.7394 18.9251L10.7661 12.9889L15.9204 10.044Z" fill="#A7A3BF"/>
<path d="M15.9137 11.528L19.7593 13.7933L19.739 18.2891L15.8732 20.5196L12.0277 18.2543L12.0479 13.7586L15.9137 11.528Z" fill="#342C46"/>
<rect x="8.90009" y="18.1311" width="1.92055" height="5.49975" transform="rotate(0.258087 8.90009 18.1311)" fill="#342C46"/>
<rect x="12.0542" y="15.6137" width="1.92055" height="5.49975" transform="rotate(0.258087 12.0542 15.6137)" fill="#342C46"/>
<rect x="10.8206" y="18.1398" width="1.22217" height="5.15056" transform="rotate(0.258087 10.8206 18.1398)" fill="#A7A3BF"/>
<rect x="13.8005" y="15.5343" width="1.30947" height="5.15056" transform="rotate(0.258087 13.8005 15.5343)" fill="#A7A3BF"/>
<rect x="14.7588" y="15.9751" width="1.30947" height="5.06327" transform="rotate(0.258087 14.7588 15.9751)" fill="#A7A3BF"/>
<rect x="8.92762" y="12.0204" width="1.92055" height="6.63462" transform="rotate(0.258087 8.92762 12.0204)" fill="#342C46"/>
<path d="M15.9055 13.3613L18.0167 14.6148L18.0055 17.1027L15.883 18.3372L13.7718 17.0837L13.783 14.5957L15.9055 13.3613Z" fill="#A7A3BF"/></svg>
